# xmcd
#
# Track frame offsets:
# 150
# 14434
# 33279
# 54783
# 72131
# 86948
# 107901
# 120093
# 137412
# 145470
# 154874
# 175439
# 196729
# 219800
#
# Disc length: 3201 seconds
#
# Revision: 0
# Processed by: cddbd v1.4PL0 Copyright (c) Steve Scherf et al.
# Submitted via: MacMP3 Pro 5.0 (http://mp3.act2.co.jp/)
#
DISCID=b70c7f0e
DTITLE=gospers - akapera
DYEAR=1900
DGENRE=
TTITLE0=iroha
TTITLE1=ridinhigh
TTITLE2=siosai
TTITLE3=hokyokusei
TTITLE4=moon
TTITLE5=imissyou
TTITLE6=tubasa
TTITLE7=fwfl
TTITLE8=tiger
TTITLE9=syest
TTITLE10=meguriai
TTITLE11=hosikuzunomati
TTITLE12=omoide
TTITLE13=toberuhazu
EXTD=
EXTT0=
EXTT1=
EXTT2=
EXTT3=
EXTT4=
EXTT5=
EXTT6=
EXTT7=
EXTT8=
EXTT9=
EXTT10=
EXTT11=
EXTT12=
EXTT13=
PLAYORDER=
